<?xml version="1.0" standalone="no"?>
<!DOCTYPE svg PUBLIC "-//W3C//DTD SVG 20010904//EN"
 "http://www.w3.org/TR/2001/REC-SVG-20010904/DTD/svg10.dtd">
<svg version="1.0" xmlns="http://www.w3.org/2000/svg"
 width="3354.000000pt" height="886.000000pt" viewBox="0 0 3354.000000 886.000000"
 preserveAspectRatio="xMidYMid meet">

<g transform="translate(0.000000,886.000000) scale(0.100000,-0.100000)"
fill="#000000" stroke="none">
<path d="M14037 8833 c-4 -3 -7 -1992 -7 -4420 l0 -4413 9755 0 9755 0 -2
4417 -3 4418 -9746 3 c-5360 1 -9749 -1 -9752 -5z m3043 -1103 l0 -320 -44 0
c-70 0 -273 -38 -379 -71 -210 -65 -371 -160 -512 -303 -144 -144 -240 -321
-293 -536 l-26 -105 -3 -677 -4 -678 470 0 471 0 0 -325 0 -325 -470 0 -470 0
0 -860 0 -860 315 0 315 0 0 -315 0 -315 -890 0 -890 0 0 315 0 315 245 0 245
0 0 860 0 860 -245 0 -245 0 0 325 0 325 240 0 240 0 0 645 c0 386 4 685 11
743 26 240 86 447 190 652 204 403 552 694 1010 844 203 67 479 118 672 124
l47 2 0 -320z m5720 -2375 l0 -2685 255 0 255 0 0 -315 0 -315 -890 0 -890 0
0 315 0 315 305 0 305 0 0 2370 0 2370 -265 0 -265 0 0 315 0 315 595 0 595 0
0 -2685z m2242 1264 c124 -26 247 -123 302 -238 29 -62 31 -73 31 -181 0 -110
-1 -118 -33 -182 -78 -160 -268 -261 -432 -230 -136 25 -254 112 -312 230 -32
64 -33 72 -33 182 0 108 2 119 31 181 65 136 220 240 371 248 12 1 46 -4 75
-10z m-5544 -1538 c144 -32 265 -76 407 -146 319 -159 544 -384 699 -700 35
-71 76 -166 90 -210 264 -826 -183 -1698 -1011 -1975 -194 -64 -264 -74 -523
-74 -223 -1 -241 1 -355 28 -214 50 -374 120 -552 238 -130 87 -318 270 -410
401 -120 170 -211 378 -255 580 -19 88 -22 132 -22 317 0 185 3 229 22 313 57
257 167 486 330 688 198 245 521 446 844 524 166 40 209 44 433 40 166 -2 229
-7 303 -24z m9040 0 c144 -32 265 -76 407 -146 319 -159 544 -384 699 -700 35
-71 76 -166 90 -210 264 -826 -183 -1698 -1011 -1975 -194 -64 -264 -74 -523
-74 -223 -1 -241 1 -355 28 -214 50 -374 120 -552 238 -130 87 -318 270 -410
401 -120 170 -211 378 -255 580 -19 88 -22 132 -22 317 0 185 3 229 22 313 57
257 167 486 330 688 198 245 521 446 844 524 166 40 209 44 433 40 166 -2 229
-7 303 -24z m-3238 -1226 l0 -1185 275 0 275 0 0 -315 0 -315 -890 0 -890 0 0
315 0 315 280 0 280 0 0 870 0 870 -280 0 -280 0 0 315 0 315 615 0 615 0 0
-1185z m5834 -1014 c165 -81 257 -238 243 -415 -12 -156 -92 -273 -235 -343
-73 -36 -80 -38 -176 -38 -93 0 -106 3 -169 32 -81 39 -173 126 -205 195 -73
157 -42 354 72 472 97 99 189 138 317 133 74 -3 96 -8 153 -36z"/>
<path d="M18982 4449 c-293 -52 -539 -247 -672 -533 -64 -136 -74 -189 -75
-376 0 -185 12 -250 70 -377 115 -250 334 -439 600 -515 107 -30 362 -33 465
-4 161 44 313 133 434 253 116 115 195 250 237 408 30 110 33 335 5 445 -23
94 -92 243 -150 324 -120 167 -308 299 -511 357 -81 24 -315 34 -403 18z"/>
<path d="M28022 4449 c-293 -52 -539 -247 -672 -533 -64 -136 -74 -189 -75
-376 0 -185 12 -250 70 -377 115 -250 334 -439 600 -515 107 -30 362 -33 465
-4 161 44 313 133 434 253 116 115 195 250 237 408 30 110 33 335 5 445 -23
94 -92 243 -150 324 -120 167 -308 299 -511 357 -81 24 -315 34 -403 18z"/>
<path d="M290 7485 l0 -155 245 0 245 0 0 -2490 0 -2490 -245 0 -245 0 0 -155
0 -155 805 0 805 0 0 155 0 155 -395 0 -395 0 0 1164 0 1164 583 5 c615 4 665
8 876 57 293 69 527 193 715 377 110 108 187 216 257 358 63 130 97 234 125
390 25 139 26 464 1 586 -45 227 -130 395 -299 597 -205 244 -524 433 -880
521 -274 68 -200 64 -1245 68 l-953 4 0 -156z m1940 -179 c474 -89 871 -367
1040 -729 106 -226 118 -485 35 -771 -113 -390 -463 -682 -930 -775 -164 -32
-332 -41 -811 -41 l-454 0 0 1171 0 1171 513 -4 c435 -4 526 -7 607 -22z"/>
<path d="M12020 6015 l0 -975 -350 0 -350 0 0 -160 0 -160 350 0 350 0 0
-1340 0 -1340 490 0 490 0 0 155 0 155 -327 2 -328 3 -3 1183 -2 1182 465 0
465 0 0 160 0 160 -465 0 -465 0 0 975 0 975 -160 0 -160 0 0 -975z"/>
<path d="M5785 5095 c-188 -31 -327 -78 -495 -167 -423 -225 -701 -593 -802
-1064 -20 -95 -23 -136 -23 -324 1 -185 4 -229 24 -320 29 -138 62 -233 120
-356 80 -167 151 -264 306 -420 146 -146 238 -216 390 -293 366 -187 831 -219
1244 -85 130 43 327 146 442 233 299 225 528 594 596 961 27 147 24 450 -6
590 -33 153 -63 238 -141 395 -163 327 -364 529 -690 693 -144 73 -251 111
-402 143 -125 28 -433 35 -563 14z m447 -330 c167 -29 336 -97 483 -193 91
-60 233 -197 304 -292 299 -400 326 -958 69 -1378 -113 -187 -306 -362 -509
-464 -177 -88 -354 -131 -549 -131 -151 0 -253 15 -380 55 -185 59 -320 141
-472 286 -265 253 -388 536 -388 892 0 263 66 480 215 706 176 265 474 461
791 518 106 19 330 20 436 1z"/>
<path d="M10375 5085 c-232 -42 -462 -142 -652 -284 -154 -114 -321 -315 -393
-470 -22 -48 -25 -51 -31 -30 -4 13 -8 65 -8 114 -1 50 -8 198 -16 330 -8 132
-15 252 -15 268 l0 27 -420 0 -420 0 0 -155 0 -155 285 0 285 0 0 -1190 0
-1190 -310 0 -310 0 0 -155 0 -155 770 0 770 0 0 155 0 155 -296 0 -295 0 4
743 c3 727 4 744 25 826 68 256 187 433 400 594 201 151 422 235 678 257 59 5
108 11 110 13 2 1 6 73 10 160 l7 157 -54 -1 c-30 0 -85 -7 -124 -14z"/>
</g>
</svg>
