<svg id="Layer_1" data-name="Layer 1" xmlns="http://www.w3.org/2000/svg" viewBox="0 0 384 384"><defs><style>.cls-1{fill:#26221f;}.cls-2{fill:#e9e6e4;}</style></defs><rect class="cls-1" width="384" height="384"/><path class="cls-2" d="M199.74,27.66c4.51,1,9.06,1.76,13.51,2.92C226,33.91,236.56,41.3,246.74,49.35c6.34,5,12.85,9.83,19.76,15.1,0-5.54,0-10.6,0-15.67,0-7.93,5.21-13.38,12.73-13.41,7.71,0,12.93,5.41,12.94,13.54,0,13.58-.06,27.17,0,40.75,0,5.58-2.17,9.8-7.06,12.32-5.06,2.6-9.89,1.67-14.36-1.74q-23-17.61-46.12-35.18c-20.66-15.74-45.06-15.49-65.76.4q-42.07,32.3-84.33,64.32c-14.13,10.77-21.12,25.13-21.17,42.8q-.13,52.62,0,105.25c0,26.28,16.94,46.94,42.66,52a48.48,48.48,0,0,0,9.25.78q86.79.07,173.6,0a51.54,51.54,0,0,0,51-43,61.89,61.89,0,0,0,.72-9.9q.07-52.47,0-104.93c0-17.21-6.39-31.52-20-42.42-6-4.79-6.83-12.83-2.17-18.49a12.89,12.89,0,0,1,18.32-1.64q24.72,19.83,28.89,51.31c.06.44.12.82.64.93V288.28c-1.43,3.2-1.41,6.73-2.31,10.06-9.35,34.85-39.41,58-75.54,58q-86.47,0-172.94,0a87.91,87.91,0,0,1-14.66-1.24c-35.58-6-63.13-38.38-63.2-74.45-.07-36.58-.18-73.16,0-109.74.15-24.53,9.94-44.89,29.2-60,28.84-22.59,58.2-44.52,87.28-66.8a78.66,78.66,0,0,1,26.59-13.56c4-1.14,8.14-1.95,12.22-2.91Z"/></svg>